<svg width="927" height="293" viewBox="0 0 927 293" fill="none" xmlns="http://www.w3.org/2000/svg">
<g clip-path="url(#clip0_43_9)">
<path d="M753.234 13.6348H843.615V113.977L753.234 13.6348ZM657.58 72.5215H656.701C656.701 52.4043 662.17 37.5605 673.107 27.9902C684.045 18.4199 700.891 13.6348 723.645 13.6348L843.615 159.24C843.615 178.576 838.391 192.395 827.941 200.695C817.785 208.801 801.184 212.854 778.137 212.854L657.58 72.5215ZM657.141 112.072L744.152 213H657.141V112.072Z" fill="#3064E6"/>
<path d="M532.043 13.6348H544.348C585.754 13.6348 610.363 31.8477 618.176 68.2734C620.617 79.3086 621.838 92.1992 621.838 106.945C621.838 121.691 620.275 135.754 617.15 149.133C614.123 162.512 609.436 173.938 603.088 183.41C589.904 203.137 570.324 213 544.348 213H532.043V13.6348ZM428.918 13.6348H507.727V212.707H428.918V13.6348Z" fill="#3064E6"/>
<path d="M306.164 13.3418H387.17V148.986C387.17 170.568 382.238 186.438 372.375 196.594C361.535 207.531 343.811 213 319.201 213H306.164V13.3418ZM88.7812 13.3418H169.787V213H156.75C120.715 213 99.2305 200.793 92.2969 176.379C89.9531 168.469 88.7812 159.338 88.7812 148.986V13.3418ZM197.326 13.4883H278.771V213.146H197.326V13.4883Z" fill="#3064E6"/>
<path d="M843.293 289.991C843.293 291.053 842.939 291.938 842.231 292.646C841.523 293.354 840.638 293.708 839.576 293.708C838.514 293.708 837.629 293.354 836.921 292.646C836.213 291.938 835.859 291.053 835.859 289.991C835.859 289.047 836.213 288.201 836.921 287.454C837.629 286.707 838.514 286.333 839.576 286.333C840.638 286.333 841.523 286.707 842.231 287.454C842.939 288.201 843.293 289.047 843.293 289.991Z" fill="#3064E6"/>
<path d="M790.323 251.7H796.105V293H790.205L790.323 251.7ZM804.483 251.7C806.803 251.7 808.868 252.172 810.678 253.116C812.487 254.021 813.923 255.397 814.985 257.246C816.047 259.095 816.578 261.396 816.578 264.149C816.578 266.902 816.027 269.203 814.926 271.052C813.824 272.901 812.369 274.317 810.56 275.3C808.79 276.244 806.862 276.716 804.778 276.716H792.624V251.7H804.483ZM795.751 271.642H803.952C805.21 271.642 806.331 271.367 807.315 270.816C808.337 270.226 809.124 269.4 809.675 268.338C810.265 267.237 810.56 265.919 810.56 264.385C810.56 262.772 810.265 261.415 809.675 260.314C809.124 259.213 808.337 258.387 807.315 257.836C806.331 257.285 805.21 257.01 803.952 257.01H795.751V271.642ZM802.064 273.471L807.551 272.94L816.519 291.938V293H810.56L802.064 273.471Z" fill="#3064E6"/>
<path d="M784.931 251.7V257.01H769.945V270.226C771.204 269.715 772.62 269.321 774.193 269.046C775.766 268.731 777.359 268.535 778.972 268.456C780.624 268.377 782.119 268.436 783.456 268.633V273.707L782.984 274.061C781.961 273.746 780.683 273.589 779.149 273.589C777.654 273.589 776.081 273.727 774.429 274.002C772.777 274.238 771.282 274.651 769.945 275.241V287.69H784.931V293H764.104V251.7H784.931Z" fill="#3064E6"/>
<path d="M759.931 251.7V257.01H751.081V293H745.299V257.01H736.331V251.7H759.931Z" fill="#3064E6"/>
<path d="M735.198 282.97C735.198 285.212 734.687 287.139 733.664 288.752C732.681 290.325 731.284 291.545 729.475 292.41C727.705 293.275 725.64 293.708 723.28 293.708C721.353 293.708 719.583 293.472 717.97 293C716.397 292.567 715.04 292.036 713.899 291.407C712.798 290.778 711.972 290.247 711.421 289.814V284.091H712.247C713.466 285.192 715.04 286.195 716.967 287.1C718.894 287.965 720.802 288.398 722.69 288.398C723.909 288.398 725.011 288.221 725.994 287.867C726.977 287.474 727.784 286.903 728.413 286.156C729.042 285.369 729.357 284.406 729.357 283.265C729.357 281.81 728.964 280.61 728.177 279.666C727.39 278.722 726.211 277.758 724.637 276.775L717.97 272.645C716.829 271.937 715.689 271.131 714.548 270.226C713.407 269.282 712.444 268.122 711.657 266.745C710.91 265.329 710.536 263.638 710.536 261.671C710.536 259.35 711.047 257.403 712.07 255.83C713.093 254.257 714.469 253.077 716.2 252.29C717.97 251.464 719.937 251.051 722.1 251.051C723.988 251.051 725.66 251.248 727.115 251.641C728.57 252.034 729.81 252.526 730.832 253.116C731.894 253.667 732.72 254.257 733.31 254.886V260.55H732.484C731.461 259.37 730.045 258.387 728.236 257.6C726.466 256.774 724.519 256.361 722.395 256.361C720.664 256.361 719.229 256.774 718.088 257.6C716.947 258.426 716.377 259.626 716.377 261.199C716.377 262.654 716.908 263.913 717.97 264.975C719.032 266.037 720.291 267.02 721.746 267.925L728 271.878C729.337 272.704 730.537 273.628 731.599 274.651C732.7 275.674 733.566 276.854 734.195 278.191C734.864 279.528 735.198 281.121 735.198 282.97Z" fill="#3064E6"/>
<path d="M677.616 293V291.879L687.351 251.7L699.623 251.759L709.358 291.879V293H703.34L700.449 280.315H686.466L683.575 293H677.616ZM687.469 275.182H699.446L695.375 257.128H691.54L687.469 275.182Z" fill="#3064E6"/>
<path d="M677.7 251.7V257.01H662.95V271.76C664.209 271.249 665.625 270.836 667.198 270.521C668.771 270.206 670.364 270.029 671.977 269.99C673.629 269.911 675.124 269.97 676.461 270.167V275.182L675.989 275.536C674.966 275.261 673.688 275.123 672.154 275.123C670.659 275.084 669.086 275.202 667.434 275.477C665.782 275.752 664.287 276.185 662.95 276.775V293H657.109V251.7H677.7Z" fill="#3064E6"/>
<path d="M596.322 251.7H602.163L607.296 285.802H608.181L613.137 251.7H620.335L625.291 285.802H626.294L631.309 251.7H637.15V252.821L630.66 293H621.574L617.149 260.963H616.382L611.898 293H602.871L596.322 252.821V251.7Z" fill="#3064E6"/>
<path d="M559.755 272.35C559.755 267.315 560.561 263.244 562.174 260.137C563.786 256.99 565.891 254.689 568.487 253.234C571.122 251.739 573.974 250.992 577.042 250.992C580.11 250.992 582.942 251.739 585.538 253.234C588.173 254.689 590.297 256.99 591.91 260.137C593.522 263.244 594.329 267.315 594.329 272.35C594.329 277.345 593.522 281.416 591.91 284.563C590.297 287.71 588.173 290.03 585.538 291.525C582.942 292.98 580.11 293.708 577.042 293.708C573.974 293.708 571.122 292.98 568.487 291.525C565.891 290.03 563.786 287.71 562.174 284.563C560.561 281.416 559.755 277.345 559.755 272.35ZM565.773 272.35C565.773 275.89 566.264 278.84 567.248 281.2C568.231 283.521 569.568 285.271 571.26 286.451C572.99 287.592 574.918 288.162 577.042 288.162C579.126 288.162 581.034 287.592 582.765 286.451C584.495 285.271 585.872 283.521 586.895 281.2C587.917 278.84 588.429 275.89 588.429 272.35C588.429 268.771 587.898 265.821 586.836 263.5C585.813 261.179 584.436 259.449 582.706 258.308C580.975 257.128 579.087 256.538 577.042 256.538C574.918 256.538 572.99 257.128 571.26 258.308C569.568 259.488 568.231 261.258 567.248 263.618C566.264 265.939 565.773 268.849 565.773 272.35Z" fill="#3064E6"/>
<path d="M529.95 251.7H535.732V293H529.832L529.95 251.7ZM544.11 251.7C546.431 251.7 548.496 252.172 550.305 253.116C552.115 254.021 553.55 255.397 554.612 257.246C555.674 259.095 556.205 261.396 556.205 264.149C556.205 266.902 555.655 269.203 554.553 271.052C553.452 272.901 551.997 274.317 550.187 275.3C548.417 276.244 546.49 276.716 544.405 276.716H532.251V251.7H544.11ZM535.378 271.642H543.579C544.838 271.642 545.959 271.367 546.942 270.816C547.965 270.226 548.752 269.4 549.302 268.338C549.892 267.237 550.187 265.919 550.187 264.385C550.187 262.772 549.892 261.415 549.302 260.314C548.752 259.213 547.965 258.387 546.942 257.836C545.959 257.285 544.838 257.01 543.579 257.01H535.378V271.642ZM541.691 273.471L547.178 272.94L556.146 291.938V293H550.187L541.691 273.471Z" fill="#3064E6"/>
<path d="M492.746 272.35C492.746 267.433 493.611 263.421 495.342 260.314C497.112 257.167 499.452 254.847 502.363 253.352C505.313 251.818 508.558 251.051 512.098 251.051C514.025 251.051 515.756 251.267 517.29 251.7C518.824 252.093 520.122 252.585 521.184 253.175C522.285 253.765 523.072 254.316 523.544 254.827V260.727H522.6C522.01 259.98 521.223 259.291 520.24 258.662C519.257 257.993 518.096 257.462 516.759 257.069C515.422 256.676 513.907 256.479 512.216 256.479C509.463 256.479 507.063 257.089 505.018 258.308C503.012 259.527 501.458 261.317 500.357 263.677C499.295 266.037 498.764 268.908 498.764 272.291C498.764 275.634 499.275 278.506 500.298 280.905C501.36 283.265 502.835 285.094 504.723 286.392C506.65 287.651 508.873 288.28 511.39 288.28C513.042 288.28 514.458 288.044 515.638 287.572C516.818 287.1 517.644 286.589 518.116 286.038V274.356H504.605V269.223H523.544V288.811C521.853 290.502 519.906 291.741 517.703 292.528C515.54 293.275 513.18 293.649 510.623 293.649C508.224 293.649 505.942 293.236 503.779 292.41C501.655 291.545 499.767 290.247 498.115 288.516C496.463 286.785 495.145 284.583 494.162 281.908C493.218 279.194 492.746 276.008 492.746 272.35Z" fill="#3064E6"/>
<path d="M469.259 297.012H465.601L468.02 286.628H473.802V287.218L469.259 297.012Z" fill="#3064E6"/>
<path d="M435.977 251.7H441.759V293H435.859L435.977 251.7ZM450.137 251.7C452.458 251.7 454.523 252.172 456.332 253.116C458.141 254.021 459.577 255.397 460.639 257.246C461.701 259.095 462.232 261.396 462.232 264.149C462.232 266.902 461.681 269.203 460.58 271.052C459.479 272.901 458.023 274.317 456.214 275.3C454.444 276.244 452.517 276.716 450.432 276.716H438.278V251.7H450.137ZM441.405 271.642H449.606C450.865 271.642 451.986 271.367 452.969 270.816C453.992 270.226 454.778 269.4 455.329 268.338C455.919 267.237 456.214 265.919 456.214 264.385C456.214 262.772 455.919 261.415 455.329 260.314C454.778 259.213 453.992 258.387 452.969 257.836C451.986 257.285 450.865 257.01 449.606 257.01H441.405V271.642ZM447.718 273.471L453.205 272.94L462.173 291.938V293H456.214L447.718 273.471Z" fill="#3064E6"/>
<path d="M430.585 251.7V257.01H415.599V270.226C416.858 269.715 418.274 269.321 419.847 269.046C421.421 268.731 423.014 268.535 424.626 268.456C426.278 268.377 427.773 268.436 429.11 268.633V273.707L428.638 274.061C427.616 273.746 426.337 273.589 424.803 273.589C423.309 273.589 421.735 273.727 420.083 274.002C418.431 274.238 416.937 274.651 415.599 275.241V287.69H430.585V293H409.758V251.7H430.585Z" fill="#3064E6"/>
<path d="M405.585 251.7V257.01H396.735V293H390.953V257.01H381.985V251.7H405.585Z" fill="#3064E6"/>
<path d="M353.527 251.7H359.309V293H353.409L353.527 251.7ZM367.687 251.7C370.007 251.7 372.072 252.172 373.882 253.116C375.691 254.021 377.127 255.397 378.189 257.246C379.251 259.095 379.782 261.396 379.782 264.149C379.782 266.902 379.231 269.203 378.13 271.052C377.028 272.901 375.573 274.317 373.764 275.3C371.994 276.244 370.066 276.716 367.982 276.716H355.828V251.7H367.687ZM358.955 271.642H367.156C368.414 271.642 369.535 271.367 370.519 270.816C371.541 270.226 372.328 269.4 372.879 268.338C373.469 267.237 373.764 265.919 373.764 264.385C373.764 262.772 373.469 261.415 372.879 260.314C372.328 259.213 371.541 258.387 370.519 257.836C369.535 257.285 368.414 257.01 367.156 257.01H358.955V271.642ZM365.268 273.471L370.755 272.94L379.723 291.938V293H373.764L365.268 273.471Z" fill="#3064E6"/>
<path d="M317.393 293V291.879L327.128 251.7L339.4 251.759L349.135 291.879V293H343.117L340.226 280.315H326.243L323.352 293H317.393ZM327.246 275.182H339.223L335.152 257.128H331.317L327.246 275.182Z" fill="#3064E6"/>
<path d="M276.375 293V251.7H285.874L294.429 283.855H295.019L303.515 251.7H313.014V293H307.291L307.527 258.957H306.76L297.674 293H291.715L282.629 258.957H281.862L282.098 293H276.375Z" fill="#3064E6"/>
<path d="M271.841 282.97C271.841 285.212 271.329 287.139 270.307 288.752C269.323 290.325 267.927 291.545 266.118 292.41C264.348 293.275 262.283 293.708 259.923 293.708C257.995 293.708 256.225 293.472 254.613 293C253.039 292.567 251.682 292.036 250.542 291.407C249.44 290.778 248.614 290.247 248.064 289.814V284.091H248.89C250.109 285.192 251.682 286.195 253.61 287.1C255.537 287.965 257.445 288.398 259.333 288.398C260.552 288.398 261.653 288.221 262.637 287.867C263.62 287.474 264.426 286.903 265.056 286.156C265.685 285.369 266 284.406 266 283.265C266 281.81 265.606 280.61 264.82 279.666C264.033 278.722 262.853 277.758 261.28 276.775L254.613 272.645C253.472 271.937 252.331 271.131 251.191 270.226C250.05 269.282 249.086 268.122 248.3 266.745C247.552 265.329 247.179 263.638 247.179 261.671C247.179 259.35 247.69 257.403 248.713 255.83C249.735 254.257 251.112 253.077 252.843 252.29C254.613 251.464 256.579 251.051 258.743 251.051C260.631 251.051 262.302 251.248 263.758 251.641C265.213 252.034 266.452 252.526 267.475 253.116C268.537 253.667 269.363 254.257 269.953 254.886V260.55H269.127C268.104 259.37 266.688 258.387 264.879 257.6C263.109 256.774 261.162 256.361 259.038 256.361C257.307 256.361 255.871 256.774 254.731 257.6C253.59 258.426 253.02 259.626 253.02 261.199C253.02 262.654 253.551 263.913 254.613 264.975C255.675 266.037 256.933 267.02 258.389 267.925L264.643 271.878C265.98 272.704 267.18 273.628 268.242 274.651C269.343 275.674 270.208 276.854 270.838 278.191C271.506 279.528 271.841 281.121 271.841 282.97Z" fill="#3064E6"/>
<path d="M203.719 293V251.7H209.619V269.341H211.507L223.189 251.7H229.266V252.762L216.168 272.114L229.266 291.938V293H223.189L211.507 274.887H209.619V293H203.719Z" fill="#3064E6"/>
<path d="M172.148 251.7H177.93V293H172.03L172.148 251.7ZM186.308 251.7C188.628 251.7 190.693 252.172 192.503 253.116C194.312 254.021 195.748 255.397 196.81 257.246C197.872 259.095 198.403 261.396 198.403 264.149C198.403 266.902 197.852 269.203 196.751 271.052C195.649 272.901 194.194 274.317 192.385 275.3C190.615 276.244 188.687 276.716 186.603 276.716H174.449V251.7H186.308ZM177.576 271.642H185.777C187.035 271.642 188.156 271.367 189.14 270.816C190.162 270.226 190.949 269.4 191.5 268.338C192.09 267.237 192.385 265.919 192.385 264.385C192.385 262.772 192.09 261.415 191.5 260.314C190.949 259.213 190.162 258.387 189.14 257.836C188.156 257.285 187.035 257.01 185.777 257.01H177.576V271.642ZM183.889 273.471L189.376 272.94L198.344 291.938V293H192.385L183.889 273.471Z" fill="#3064E6"/>
<path d="M132.062 272.35C132.062 267.315 132.869 263.244 134.481 260.137C136.094 256.99 138.198 254.689 140.794 253.234C143.43 251.739 146.281 250.992 149.349 250.992C152.417 250.992 155.249 251.739 157.845 253.234C160.481 254.689 162.605 256.99 164.217 260.137C165.83 263.244 166.636 267.315 166.636 272.35C166.636 277.345 165.83 281.416 164.217 284.563C162.605 287.71 160.481 290.03 157.845 291.525C155.249 292.98 152.417 293.708 149.349 293.708C146.281 293.708 143.43 292.98 140.794 291.525C138.198 290.03 136.094 287.71 134.481 284.563C132.869 281.416 132.062 277.345 132.062 272.35ZM138.08 272.35C138.08 275.89 138.572 278.84 139.555 281.2C140.539 283.521 141.876 285.271 143.567 286.451C145.298 287.592 147.225 288.162 149.349 288.162C151.434 288.162 153.342 287.592 155.072 286.451C156.803 285.271 158.18 283.521 159.202 281.2C160.225 278.84 160.736 275.89 160.736 272.35C160.736 268.771 160.205 265.821 159.143 263.5C158.121 261.179 156.744 259.449 155.013 258.308C153.283 257.128 151.395 256.538 149.349 256.538C147.225 256.538 145.298 257.128 143.567 258.308C141.876 259.488 140.539 261.258 139.555 263.618C138.572 265.939 138.08 268.849 138.08 272.35Z" fill="#3064E6"/>
<path d="M89.0029 251.7H94.8439L99.9769 285.802H100.862L105.818 251.7H113.016L117.972 285.802H118.975L123.99 251.7H129.831V252.821L123.341 293H114.255L109.83 260.963H109.063L104.579 293H95.5519L89.0029 252.821V251.7Z" fill="#3064E6"/>
</g>
<defs>
<clipPath id="clip0_43_9">
<rect width="927" height="293" fill="white"/>
</clipPath>
</defs>
</svg>